<svg xmlns="http://www.w3.org/2000/svg" width="971" height="292">
  <path clip-rule="evenodd" d="M105.756 264.757C130.013 280.641 158.54 289.132 187.73 289.157H351.498V249.96H288.875C301.838 238.074 312.526 223.967 320.389 208.298C330.308 188.53 335.468 166.803 335.47 144.782C335.476 116.227 326.826 88.3107 310.616 64.5635C294.405 40.8163 271.361 22.304 244.397 11.367C217.433 0.429948 187.759 -2.44079 159.128 3.11769C130.496 8.67617 104.192 22.4143 83.5408 42.5953C62.8894 62.7763 48.818 88.494 43.1056 116.497C37.3931 144.501 40.2961 173.532 51.4475 199.922C62.5989 226.311 81.498 248.874 105.756 264.757ZM187.878 249.96H187.861C166.589 249.964 145.793 243.798 128.104 232.239C110.416 220.681 96.628 204.251 88.4855 185.027C80.343 165.802 78.2113 144.648 82.36 124.238C86.5088 103.828 96.7515 85.0808 111.793 70.3665C126.834 55.6521 145.998 45.632 166.861 41.5735C187.725 37.5149 209.349 39.6003 229.001 47.5658C248.652 55.5313 265.448 69.0191 277.263 86.3233C289.077 103.626 295.38 123.967 295.376 144.774C295.338 172.656 284.001 199.385 263.85 219.102C243.699 238.819 216.379 249.916 187.878 249.96ZM427.133 264.757C451.39 280.641 479.917 289.132 509.107 289.157H672.875V249.96H610.252C623.215 238.074 633.903 223.967 641.766 208.298C651.685 188.531 656.845 166.803 656.848 144.782C656.853 116.227 648.203 88.3108 631.993 64.5636C615.782 40.8164 592.738 22.3041 565.774 11.3671C538.81 0.430069 509.137 -2.44067 480.505 3.11781C451.873 8.67629 425.569 22.4144 404.918 42.5954C384.266 62.7764 370.195 88.4942 364.483 116.497C358.77 144.501 361.673 173.532 372.825 199.922C383.976 226.311 402.875 248.874 427.133 264.757ZM509.255 249.96H509.238C487.966 249.964 467.17 243.798 449.481 232.24C431.793 220.681 418.005 204.251 409.863 185.027C401.72 165.803 399.588 144.648 403.737 124.238C407.886 103.829 418.129 85.081 433.17 70.3666C448.211 55.6523 467.375 45.6321 488.239 41.5736C509.102 37.5151 530.727 39.6004 550.378 47.5659C570.03 55.5314 586.825 69.0193 598.64 86.3235C610.454 103.626 616.757 123.967 616.754 144.775C616.715 172.656 605.378 199.385 585.227 219.102C565.076 238.819 537.756 249.916 509.255 249.96ZM811.296 190.432H811.29C792.079 190.442 773.297 184.879 757.318 174.446C741.339 164.013 728.882 149.179 721.522 131.82C714.162 114.461 712.229 95.3562 715.969 76.9225C719.708 58.4888 728.951 41.554 742.53 28.2598C756.108 14.9655 773.412 5.90905 792.252 2.23572C811.092 -1.4376 830.623 0.437228 848.374 7.6231C866.125 14.809 881.299 26.9831 891.977 42.6058C902.654 58.2285 908.357 76.598 908.362 95.3912V95.395C908.353 112.066 903.845 128.44 895.292 142.859L895.26 142.913L894.369 144.331L894.342 144.375L893.981 144.965L803.735 289.724H756.769L818.974 190.124C816.421 190.324 813.86 190.427 811.296 190.432ZM860.381 123.715C867.948 111.321 870.201 96.5019 866.646 82.489C863.089 68.4659 854.005 56.389 841.378 48.8947C828.751 41.4004 813.606 39.0973 799.249 42.4883C784.892 45.8793 772.49 54.6889 764.749 66.994C757.008 79.299 754.558 94.1001 757.934 108.166C761.309 122.232 770.236 134.42 782.765 142.071C795.294 149.721 810.409 152.211 824.808 148.998C839.197 145.787 851.705 137.142 859.606 124.947L860.381 123.715Z" fill="#fff"/>
  <path fill-rule="evenodd" clip-rule="evenodd" d="M105.756 264.757C130.013 280.641 158.54 289.132 187.73 289.157H351.498V249.96H288.875C301.838 238.074 312.526 223.967 320.389 208.298C330.308 188.53 335.468 166.803 335.47 144.782C335.476 116.227 326.826 88.3107 310.616 64.5635C294.405 40.8163 271.361 22.304 244.397 11.367C217.433 0.429948 187.759 -2.44079 159.128 3.11769C130.496 8.67617 104.192 22.4143 83.5408 42.5953C62.8894 62.7763 48.818 88.494 43.1056 116.497C37.3931 144.501 40.2961 173.532 51.4475 199.922C62.5989 226.311 81.498 248.874 105.756 264.757ZM187.878 249.96H187.861C166.589 249.964 145.793 243.798 128.104 232.239C110.416 220.681 96.628 204.251 88.4855 185.027C80.343 165.802 78.2113 144.648 82.36 124.238C86.5088 103.828 96.7515 85.0808 111.793 70.3665C126.834 55.6521 145.998 45.632 166.861 41.5735C187.725 37.5149 209.349 39.6003 229.001 47.5658C248.652 55.5313 265.448 69.0191 277.263 86.3233C289.077 103.626 295.38 123.967 295.376 144.774C295.338 172.656 284.001 199.385 263.85 219.102C243.699 238.819 216.379 249.916 187.878 249.96ZM427.133 264.757C451.39 280.641 479.917 289.132 509.107 289.157H672.875V249.96H610.252C623.215 238.074 633.903 223.967 641.766 208.298C651.685 188.531 656.845 166.803 656.848 144.782C656.853 116.227 648.203 88.3108 631.993 64.5636C615.782 40.8164 592.738 22.3041 565.774 11.3671C538.81 0.430069 509.137 -2.44067 480.505 3.11781C451.873 8.67629 425.569 22.4144 404.918 42.5954C384.266 62.7764 370.195 88.4942 364.483 116.497C358.77 144.501 361.673 173.532 372.825 199.922C383.976 226.311 402.875 248.874 427.133 264.757ZM509.255 249.96H509.238C487.966 249.964 467.17 243.798 449.481 232.24C431.793 220.681 418.005 204.251 409.863 185.027C401.72 165.803 399.588 144.648 403.737 124.238C407.886 103.829 418.129 85.081 433.17 70.3666C448.211 55.6523 467.375 45.6321 488.239 41.5736C509.102 37.5151 530.727 39.6004 550.378 47.5659C570.03 55.5314 586.825 69.0193 598.64 86.3235C610.454 103.626 616.757 123.967 616.754 144.775C616.715 172.656 605.378 199.385 585.227 219.102C565.076 238.819 537.756 249.916 509.255 249.96ZM811.296 190.432H811.29C792.079 190.442 773.297 184.879 757.318 174.446C741.339 164.013 728.882 149.179 721.522 131.82C714.162 114.461 712.229 95.3562 715.969 76.9225C719.708 58.4888 728.951 41.554 742.53 28.2598C756.108 14.9655 773.412 5.90905 792.252 2.23572C811.092 -1.4376 830.623 0.437228 848.374 7.6231C866.125 14.809 881.299 26.9831 891.977 42.6058C902.654 58.2285 908.357 76.598 908.362 95.3912V95.395C908.353 112.066 903.845 128.44 895.292 142.859L895.26 142.913L894.369 144.331L894.342 144.375L893.981 144.965L803.735 289.724H756.769L818.974 190.124C816.421 190.324 813.86 190.427 811.296 190.432ZM860.381 123.715C867.948 111.321 870.201 96.5019 866.646 82.489C863.089 68.4659 854.005 56.389 841.378 48.8947C828.751 41.4004 813.606 39.0973 799.249 42.4883C784.892 45.8793 772.49 54.6889 764.749 66.994C757.008 79.299 754.558 94.1001 757.934 108.166C761.309 122.232 770.236 134.42 782.765 142.071C795.294 149.721 810.409 152.211 824.808 148.998C839.197 145.787 851.705 137.142 859.606 124.947L860.381 123.715Z" fill="#fff"/>
  <path clip-rule="evenodd" d="M105.756 264.757C130.013 280.641 158.54 289.132 187.73 289.157H351.498V249.96H288.875C301.838 238.074 312.526 223.967 320.389 208.298C330.308 188.53 335.468 166.803 335.47 144.782C335.476 116.227 326.826 88.3107 310.616 64.5635C294.405 40.8163 271.361 22.304 244.397 11.367C217.433 0.429948 187.759 -2.44079 159.128 3.11769C130.496 8.67617 104.192 22.4143 83.5408 42.5953C62.8894 62.7763 48.818 88.494 43.1056 116.497C37.3931 144.501 40.2961 173.532 51.4475 199.922C62.5989 226.311 81.498 248.874 105.756 264.757ZM187.878 249.96H187.861C166.589 249.964 145.793 243.798 128.104 232.239C110.416 220.681 96.628 204.251 88.4855 185.027C80.343 165.802 78.2113 144.648 82.36 124.238C86.5088 103.828 96.7515 85.0808 111.793 70.3665C126.834 55.6521 145.998 45.632 166.861 41.5735C187.725 37.5149 209.349 39.6003 229.001 47.5658C248.652 55.5313 265.448 69.0191 277.263 86.3233C289.077 103.626 295.38 123.967 295.376 144.774C295.338 172.656 284.001 199.385 263.85 219.102C243.699 238.819 216.379 249.916 187.878 249.96ZM427.133 264.757C451.39 280.641 479.917 289.132 509.107 289.157H672.875V249.96H610.252C623.215 238.074 633.903 223.967 641.766 208.298C651.685 188.531 656.845 166.803 656.848 144.782C656.853 116.227 648.203 88.3108 631.993 64.5636C615.782 40.8164 592.738 22.3041 565.774 11.3671C538.81 0.430069 509.137 -2.44067 480.505 3.11781C451.873 8.67629 425.569 22.4144 404.918 42.5954C384.266 62.7764 370.195 88.4942 364.483 116.497C358.77 144.501 361.673 173.532 372.825 199.922C383.976 226.311 402.875 248.874 427.133 264.757ZM509.255 249.96H509.238C487.966 249.964 467.17 243.798 449.481 232.24C431.793 220.681 418.005 204.251 409.863 185.027C401.72 165.803 399.588 144.648 403.737 124.238C407.886 103.829 418.129 85.081 433.17 70.3666C448.211 55.6523 467.375 45.6321 488.239 41.5736C509.102 37.5151 530.727 39.6004 550.378 47.5659C570.03 55.5314 586.825 69.0193 598.64 86.3235C610.454 103.626 616.757 123.967 616.754 144.775C616.715 172.656 605.378 199.385 585.227 219.102C565.076 238.819 537.756 249.916 509.255 249.96ZM811.296 190.432H811.29C792.079 190.442 773.297 184.879 757.318 174.446C741.339 164.013 728.882 149.179 721.522 131.82C714.162 114.461 712.229 95.3562 715.969 76.9225C719.708 58.4888 728.951 41.554 742.53 28.2598C756.108 14.9655 773.412 5.90905 792.252 2.23572C811.092 -1.4376 830.623 0.437228 848.374 7.6231C866.125 14.809 881.299 26.9831 891.977 42.6058C902.654 58.2285 908.357 76.598 908.362 95.3912V95.395C908.353 112.066 903.845 128.44 895.292 142.859L895.26 142.913L894.369 144.331L894.342 144.375L893.981 144.965L803.735 289.724H756.769L818.974 190.124C816.421 190.324 813.86 190.427 811.296 190.432ZM860.381 123.715C867.948 111.321 870.201 96.5019 866.646 82.489C863.089 68.4659 854.005 56.389 841.378 48.8947C828.751 41.4004 813.606 39.0973 799.249 42.4883C784.892 45.8793 772.49 54.6889 764.749 66.994C757.008 79.299 754.558 94.1001 757.934 108.166C761.309 122.232 770.236 134.42 782.765 142.071C795.294 149.721 810.409 152.211 824.808 148.998C839.197 145.787 851.705 137.142 859.606 124.947L860.381 123.715Z" fill="#fff"/>
</svg>